G04*
G04 #@! TF.GenerationSoftware,Altium Limited,Altium Designer,24.5.2 (23)*
G04*
G04 Layer_Physical_Order=2*
G04 Layer_Color=16711680*
%FSLAX44Y44*%
%MOMM*%
G71*
G04*
G04 #@! TF.SameCoordinates,52CA54B2-E9F7-45E4-B012-8A7E883E60BD*
G04*
G04*
G04 #@! TF.FilePolarity,Positive*
G04*
G01*
G75*
%ADD19R,0.7000X1.3000*%
%ADD25R,1.3000X0.7000*%
%ADD46C,0.5000*%
%ADD47C,0.3000*%
%ADD48R,2.0000X2.0000*%
%ADD49C,2.0000*%
%ADD50O,1.5500X1.0000*%
%ADD51O,1.0000X1.3000*%
%ADD52R,2.0000X2.0000*%
%ADD53C,0.8000*%
G36*
X600000Y0D02*
X0D01*
Y300000D01*
X367632D01*
X368390Y297500D01*
X368216Y297384D01*
X368216Y297384D01*
X357094Y286262D01*
X356425Y286648D01*
X353246Y287500D01*
X349954D01*
X346775Y286648D01*
X343925Y285002D01*
X341598Y282675D01*
X340283Y280398D01*
X339202Y280144D01*
X338598D01*
X337517Y280398D01*
X336203Y282675D01*
X333875Y285002D01*
X331025Y286648D01*
X327846Y287500D01*
X324554D01*
X321375Y286648D01*
X318525Y285002D01*
X316197Y282675D01*
X314883Y280398D01*
X313802Y280144D01*
X313198D01*
X312117Y280398D01*
X310802Y282675D01*
X308475Y285002D01*
X305625Y286648D01*
X302446Y287500D01*
X299154D01*
X295975Y286648D01*
X293125Y285002D01*
X290798Y282675D01*
X289483Y280398D01*
X288402Y280144D01*
X287798D01*
X286717Y280398D01*
X285403Y282675D01*
X283075Y285002D01*
X280225Y286648D01*
X277046Y287500D01*
X273754D01*
X270575Y286648D01*
X267725Y285002D01*
X265397Y282675D01*
X264111Y280447D01*
X263132Y280202D01*
X262285Y280205D01*
X261332Y280453D01*
X260035Y282700D01*
X257700Y285035D01*
X254840Y286685D01*
X251651Y287540D01*
X251270D01*
Y275000D01*
X248730D01*
Y287540D01*
X248349D01*
X245160Y286685D01*
X242300Y285035D01*
X239965Y282700D01*
X238668Y280453D01*
X237715Y280205D01*
X236868Y280202D01*
X235889Y280447D01*
X234603Y282675D01*
X232275Y285002D01*
X229425Y286648D01*
X226246Y287500D01*
X222954D01*
X219775Y286648D01*
X216925Y285002D01*
X214597Y282675D01*
X214200Y281987D01*
X211700Y282657D01*
Y287500D01*
X186700D01*
Y262500D01*
X211700D01*
Y267343D01*
X214200Y268013D01*
X214597Y267325D01*
X216925Y264998D01*
X219775Y263352D01*
X222954Y262500D01*
X226246D01*
X229120Y263270D01*
X237995Y254395D01*
X239649Y253290D01*
X241600Y252902D01*
X407888D01*
X408402Y252388D01*
Y244000D01*
X407500D01*
Y226000D01*
X409402D01*
Y225500D01*
X409790Y223549D01*
X410895Y221895D01*
X418895Y213895D01*
X420549Y212790D01*
X422500Y212402D01*
X444000D01*
Y211500D01*
X462000D01*
Y212402D01*
X473838D01*
X478204Y208037D01*
X476909Y205795D01*
X476146Y206000D01*
X472854D01*
X469675Y205148D01*
X466825Y203503D01*
X464497Y201175D01*
X462852Y198325D01*
X462000Y195146D01*
Y191854D01*
X462852Y188675D01*
X464497Y185825D01*
X466825Y183498D01*
X469675Y181852D01*
X472854Y181000D01*
X476146D01*
X479325Y181852D01*
X482175Y183498D01*
X484502Y185825D01*
X486148Y188675D01*
X487000Y191854D01*
Y195146D01*
X486795Y195909D01*
X489037Y197204D01*
X520845Y165395D01*
X522499Y164290D01*
X524450Y163902D01*
X546888D01*
X566270Y144520D01*
X565500Y141646D01*
Y138354D01*
X566352Y135175D01*
X567998Y132325D01*
X570325Y129998D01*
X572553Y128711D01*
X572798Y127732D01*
X572795Y126885D01*
X572547Y125932D01*
X570300Y124635D01*
X567966Y122300D01*
X566315Y119440D01*
X565460Y116251D01*
Y115870D01*
X578000D01*
X590540D01*
Y116251D01*
X589685Y119440D01*
X588035Y122300D01*
X585700Y124635D01*
X583453Y125932D01*
X583205Y126885D01*
X583202Y127732D01*
X583447Y128711D01*
X585675Y129998D01*
X588003Y132325D01*
X589648Y135175D01*
X590500Y138354D01*
Y141646D01*
X589648Y144825D01*
X588003Y147675D01*
X585675Y150002D01*
X583398Y151317D01*
X583144Y152398D01*
Y153002D01*
X583398Y154083D01*
X585675Y155398D01*
X588003Y157725D01*
X589648Y160575D01*
X590500Y163754D01*
Y167046D01*
X589648Y170225D01*
X588003Y173075D01*
X585675Y175403D01*
X583398Y176717D01*
X583144Y177798D01*
Y178402D01*
X583398Y179483D01*
X585675Y180798D01*
X588003Y183125D01*
X589648Y185975D01*
X590500Y189154D01*
Y192446D01*
X589648Y195625D01*
X589262Y196294D01*
X594884Y201916D01*
X594884Y201916D01*
X595768Y203239D01*
X596078Y204800D01*
X596078Y204800D01*
Y239977D01*
X595768Y241538D01*
X594884Y242861D01*
X594884Y242861D01*
X540361Y297384D01*
X540187Y297500D01*
X540945Y300000D01*
X600000D01*
Y0D01*
D02*
G37*
%LPC*%
G36*
X335356Y166102D02*
Y160942D01*
X340516D01*
X340180Y162196D01*
X339319Y163687D01*
X338101Y164905D01*
X336610Y165766D01*
X335356Y166102D01*
D02*
G37*
G36*
X332816D02*
X331561Y165766D01*
X330070Y164905D01*
X328853Y163687D01*
X327991Y162196D01*
X327655Y160942D01*
X332816D01*
Y166102D01*
D02*
G37*
G36*
X287270Y163430D02*
Y158270D01*
X292430D01*
X292094Y159524D01*
X291233Y161016D01*
X290016Y162233D01*
X288524Y163094D01*
X287270Y163430D01*
D02*
G37*
G36*
X284730D02*
X283476Y163094D01*
X281984Y162233D01*
X280767Y161016D01*
X279906Y159524D01*
X279570Y158270D01*
X284730D01*
Y163430D01*
D02*
G37*
G36*
X340516Y158402D02*
X335356D01*
Y153241D01*
X336610Y153577D01*
X338101Y154438D01*
X339319Y155656D01*
X340180Y157147D01*
X340516Y158402D01*
D02*
G37*
G36*
X332816D02*
X327655D01*
X327991Y157147D01*
X328853Y155656D01*
X330070Y154438D01*
X331561Y153577D01*
X332816Y153241D01*
Y158402D01*
D02*
G37*
G36*
X292430Y155730D02*
X287270D01*
Y150570D01*
X288524Y150906D01*
X290016Y151767D01*
X291233Y152984D01*
X292094Y154476D01*
X292430Y155730D01*
D02*
G37*
G36*
X284730D02*
X279570D01*
X279906Y154476D01*
X280767Y152984D01*
X281984Y151767D01*
X283476Y150906D01*
X284730Y150570D01*
Y155730D01*
D02*
G37*
G36*
X487040Y161040D02*
X475770D01*
Y149770D01*
X487040D01*
Y161040D01*
D02*
G37*
G36*
X473230D02*
X461960D01*
Y149770D01*
X473230D01*
Y161040D01*
D02*
G37*
G36*
X541151D02*
X540770D01*
Y149770D01*
X552040D01*
Y150151D01*
X551185Y153340D01*
X549534Y156200D01*
X547200Y158534D01*
X544340Y160185D01*
X541151Y161040D01*
D02*
G37*
G36*
X538230D02*
X537849D01*
X534660Y160185D01*
X531800Y158534D01*
X529465Y156200D01*
X527815Y153340D01*
X526960Y150151D01*
Y149770D01*
X538230D01*
Y161040D01*
D02*
G37*
G36*
X358270Y153430D02*
Y148270D01*
X363430D01*
X363094Y149524D01*
X362233Y151016D01*
X361016Y152233D01*
X359524Y153094D01*
X358270Y153430D01*
D02*
G37*
G36*
X355730D02*
X354476Y153094D01*
X352984Y152233D01*
X351767Y151016D01*
X350906Y149524D01*
X350570Y148270D01*
X355730D01*
Y153430D01*
D02*
G37*
G36*
X363430Y145730D02*
X358270D01*
Y140570D01*
X359524Y140906D01*
X361016Y141767D01*
X362233Y142984D01*
X363094Y144476D01*
X363430Y145730D01*
D02*
G37*
G36*
X355730D02*
X350570D01*
X350906Y144476D01*
X351767Y142984D01*
X352984Y141767D01*
X354476Y140906D01*
X355730Y140570D01*
Y145730D01*
D02*
G37*
G36*
X552040Y147230D02*
X540770D01*
Y135960D01*
X541151D01*
X544340Y136815D01*
X547200Y138465D01*
X549534Y140800D01*
X551185Y143660D01*
X552040Y146849D01*
Y147230D01*
D02*
G37*
G36*
X538230D02*
X526960D01*
Y146849D01*
X527815Y143660D01*
X529465Y140800D01*
X531800Y138465D01*
X534660Y136815D01*
X537849Y135960D01*
X538230D01*
Y147230D01*
D02*
G37*
G36*
X487040Y147230D02*
X475770D01*
Y135960D01*
X487040D01*
Y147230D01*
D02*
G37*
G36*
X473230D02*
X461960D01*
Y135960D01*
X473230D01*
Y147230D01*
D02*
G37*
G36*
X19750Y138605D02*
X18270D01*
Y132270D01*
X27188D01*
X27096Y132968D01*
X26336Y134803D01*
X25128Y136378D01*
X23552Y137586D01*
X21718Y138346D01*
X19750Y138605D01*
D02*
G37*
G36*
X15730D02*
X14250D01*
X12282Y138346D01*
X10447Y137586D01*
X8872Y136378D01*
X7664Y134803D01*
X6904Y132968D01*
X6812Y132270D01*
X15730D01*
Y138605D01*
D02*
G37*
G36*
X27188Y129730D02*
X18270D01*
Y123395D01*
X19750D01*
X21718Y123654D01*
X23552Y124414D01*
X25128Y125622D01*
X26336Y127198D01*
X27096Y129032D01*
X27188Y129730D01*
D02*
G37*
G36*
X15730D02*
X6812D01*
X6904Y129032D01*
X7664Y127198D01*
X8872Y125622D01*
X10447Y124414D01*
X12282Y123654D01*
X14250Y123395D01*
X15730D01*
Y129730D01*
D02*
G37*
G36*
X45270Y129938D02*
Y122270D01*
X51605D01*
Y122500D01*
X51346Y124468D01*
X50586Y126302D01*
X49378Y127878D01*
X47803Y129086D01*
X45968Y129846D01*
X45270Y129938D01*
D02*
G37*
G36*
X42730Y129938D02*
X42032Y129846D01*
X40198Y129086D01*
X38622Y127878D01*
X37414Y126302D01*
X36654Y124468D01*
X36395Y122500D01*
Y122270D01*
X42730D01*
Y129938D01*
D02*
G37*
G36*
X51605Y119730D02*
X45270D01*
Y112062D01*
X45968Y112154D01*
X47803Y112914D01*
X49378Y114122D01*
X50586Y115697D01*
X51346Y117532D01*
X51605Y119500D01*
Y119730D01*
D02*
G37*
G36*
X42730D02*
X36395D01*
Y119500D01*
X36654Y117532D01*
X37414Y115697D01*
X38622Y114122D01*
X40198Y112914D01*
X42032Y112154D01*
X42730Y112062D01*
Y119730D01*
D02*
G37*
G36*
X413270Y98430D02*
Y93270D01*
X418430D01*
X418094Y94524D01*
X417233Y96016D01*
X416016Y97233D01*
X414524Y98094D01*
X413270Y98430D01*
D02*
G37*
G36*
X410730D02*
X409476Y98094D01*
X407984Y97233D01*
X406767Y96016D01*
X405906Y94524D01*
X405570Y93270D01*
X410730D01*
Y98430D01*
D02*
G37*
G36*
X590540Y113330D02*
X578000D01*
X565460D01*
Y112949D01*
X566315Y109760D01*
X567966Y106900D01*
X570300Y104565D01*
X570864Y104240D01*
X570194Y101740D01*
X565460D01*
Y90470D01*
X578000D01*
X590540D01*
Y101740D01*
X585806D01*
X585136Y104240D01*
X585700Y104565D01*
X588035Y106900D01*
X589685Y109760D01*
X590540Y112949D01*
Y113330D01*
D02*
G37*
G36*
X434856Y142500D02*
X433144D01*
X431491Y142057D01*
X430009Y141201D01*
X428799Y139991D01*
X427943Y138509D01*
X427500Y136856D01*
Y135268D01*
X391732Y99500D01*
X390144D01*
X388491Y99057D01*
X387009Y98201D01*
X385799Y96991D01*
X384943Y95509D01*
X384500Y93856D01*
Y92144D01*
X384943Y90491D01*
X385799Y89009D01*
X387009Y87799D01*
X388491Y86943D01*
X390144Y86500D01*
X391856D01*
X393509Y86943D01*
X394991Y87799D01*
X396201Y89009D01*
X397057Y90491D01*
X397500Y92144D01*
Y93732D01*
X433268Y129500D01*
X434856D01*
X436509Y129943D01*
X437991Y130799D01*
X439201Y132009D01*
X440057Y133491D01*
X440500Y135144D01*
Y136856D01*
X440057Y138509D01*
X439201Y139991D01*
X437991Y141201D01*
X436509Y142057D01*
X434856Y142500D01*
D02*
G37*
G36*
X418430Y90730D02*
X413270D01*
Y85570D01*
X414524Y85906D01*
X416016Y86767D01*
X417233Y87984D01*
X418094Y89476D01*
X418430Y90730D01*
D02*
G37*
G36*
X410730D02*
X405570D01*
X405906Y89476D01*
X406767Y87984D01*
X407984Y86767D01*
X409476Y85906D01*
X410730Y85570D01*
Y90730D01*
D02*
G37*
G36*
X590540Y87930D02*
X579270D01*
Y76660D01*
X590540D01*
Y87930D01*
D02*
G37*
G36*
X576730D02*
X565460D01*
Y76660D01*
X576730D01*
Y87930D01*
D02*
G37*
G36*
X45270Y79938D02*
Y72270D01*
X51605D01*
Y72500D01*
X51346Y74468D01*
X50586Y76302D01*
X49378Y77878D01*
X47803Y79086D01*
X45968Y79846D01*
X45270Y79938D01*
D02*
G37*
G36*
X42730Y79938D02*
X42032Y79846D01*
X40198Y79086D01*
X38622Y77878D01*
X37414Y76302D01*
X36654Y74468D01*
X36395Y72500D01*
Y72270D01*
X42730D01*
Y79938D01*
D02*
G37*
G36*
X19750Y68605D02*
X18270D01*
Y62270D01*
X27188D01*
X27096Y62968D01*
X26336Y64802D01*
X25128Y66378D01*
X23552Y67586D01*
X21718Y68346D01*
X19750Y68605D01*
D02*
G37*
G36*
X15730D02*
X14250D01*
X12282Y68346D01*
X10447Y67586D01*
X8872Y66378D01*
X7664Y64802D01*
X6904Y62968D01*
X6812Y62270D01*
X15730D01*
Y68605D01*
D02*
G37*
G36*
X51605Y69730D02*
X45270D01*
Y62062D01*
X45968Y62154D01*
X47803Y62914D01*
X49378Y64122D01*
X50586Y65697D01*
X51346Y67532D01*
X51605Y69500D01*
Y69730D01*
D02*
G37*
G36*
X42730D02*
X36395D01*
Y69500D01*
X36654Y67532D01*
X37414Y65697D01*
X38622Y64122D01*
X40198Y62914D01*
X42032Y62154D01*
X42730Y62062D01*
Y69730D01*
D02*
G37*
G36*
X27188Y59730D02*
X18270D01*
Y53395D01*
X19750D01*
X21718Y53654D01*
X23552Y54414D01*
X25128Y55622D01*
X26336Y57197D01*
X27096Y59032D01*
X27188Y59730D01*
D02*
G37*
G36*
X15730D02*
X6812D01*
X6904Y59032D01*
X7664Y57197D01*
X8872Y55622D01*
X10447Y54414D01*
X12282Y53654D01*
X14250Y53395D01*
X15730D01*
Y59730D01*
D02*
G37*
G36*
X451930Y37540D02*
X451549D01*
X448360Y36685D01*
X445500Y35034D01*
X443166Y32700D01*
X441868Y30453D01*
X440915Y30206D01*
X440068Y30202D01*
X439089Y30447D01*
X437803Y32675D01*
X435475Y35003D01*
X432625Y36648D01*
X429446Y37500D01*
X426154D01*
X422975Y36648D01*
X420125Y35003D01*
X417798Y32675D01*
X416483Y30398D01*
X415402Y30143D01*
X414798D01*
X413717Y30398D01*
X412402Y32675D01*
X410075Y35003D01*
X407225Y36648D01*
X404046Y37500D01*
X400754D01*
X397575Y36648D01*
X394725Y35003D01*
X392397Y32675D01*
X391083Y30398D01*
X390002Y30143D01*
X389398D01*
X388317Y30398D01*
X387002Y32675D01*
X384675Y35003D01*
X381825Y36648D01*
X378646Y37500D01*
X375354D01*
X372175Y36648D01*
X369325Y35003D01*
X366997Y32675D01*
X365683Y30398D01*
X364602Y30143D01*
X363998D01*
X362917Y30398D01*
X361603Y32675D01*
X359275Y35003D01*
X356425Y36648D01*
X353246Y37500D01*
X349954D01*
X346775Y36648D01*
X343925Y35003D01*
X341598Y32675D01*
X340283Y30398D01*
X339202Y30143D01*
X338598D01*
X337517Y30398D01*
X336203Y32675D01*
X333875Y35003D01*
X331025Y36648D01*
X327846Y37500D01*
X324554D01*
X321375Y36648D01*
X318525Y35003D01*
X316197Y32675D01*
X314883Y30398D01*
X313802Y30143D01*
X313198D01*
X312117Y30398D01*
X310802Y32675D01*
X308475Y35003D01*
X305625Y36648D01*
X302446Y37500D01*
X299154D01*
X295975Y36648D01*
X293125Y35003D01*
X290798Y32675D01*
X289483Y30398D01*
X288402Y30143D01*
X287798D01*
X286717Y30398D01*
X285403Y32675D01*
X283075Y35003D01*
X280225Y36648D01*
X277046Y37500D01*
X273754D01*
X270575Y36648D01*
X267725Y35003D01*
X265397Y32675D01*
X264083Y30398D01*
X263002Y30143D01*
X262398D01*
X261317Y30398D01*
X260002Y32675D01*
X257675Y35003D01*
X254825Y36648D01*
X251646Y37500D01*
X248354D01*
X245175Y36648D01*
X242325Y35003D01*
X239998Y32675D01*
X238683Y30398D01*
X237602Y30143D01*
X236998D01*
X235917Y30398D01*
X234603Y32675D01*
X232275Y35003D01*
X229425Y36648D01*
X226246Y37500D01*
X222954D01*
X219775Y36648D01*
X216925Y35003D01*
X214597Y32675D01*
X214200Y31987D01*
X211700Y32657D01*
Y37500D01*
X186700D01*
Y12500D01*
X211700D01*
Y17343D01*
X214200Y18013D01*
X214597Y17325D01*
X216925Y14998D01*
X219775Y13352D01*
X222954Y12500D01*
X226246D01*
X229425Y13352D01*
X232275Y14998D01*
X234603Y17325D01*
X235917Y19602D01*
X236998Y19856D01*
X237602D01*
X238683Y19602D01*
X239998Y17325D01*
X242325Y14998D01*
X245175Y13352D01*
X248354Y12500D01*
X251646D01*
X254825Y13352D01*
X257675Y14998D01*
X260002Y17325D01*
X261317Y19602D01*
X262398Y19856D01*
X263002D01*
X264083Y19602D01*
X265397Y17325D01*
X267725Y14998D01*
X270575Y13352D01*
X273754Y12500D01*
X277046D01*
X280225Y13352D01*
X283075Y14998D01*
X285403Y17325D01*
X286717Y19602D01*
X287798Y19856D01*
X288402D01*
X289483Y19602D01*
X290798Y17325D01*
X293125Y14998D01*
X295975Y13352D01*
X299154Y12500D01*
X302446D01*
X305625Y13352D01*
X308475Y14998D01*
X310802Y17325D01*
X312117Y19602D01*
X313198Y19856D01*
X313802D01*
X314883Y19602D01*
X316197Y17325D01*
X318525Y14998D01*
X321375Y13352D01*
X324554Y12500D01*
X327846D01*
X331025Y13352D01*
X333875Y14998D01*
X336203Y17325D01*
X337517Y19602D01*
X338598Y19856D01*
X339202D01*
X340283Y19602D01*
X341598Y17325D01*
X343925Y14998D01*
X346775Y13352D01*
X349954Y12500D01*
X353246D01*
X356425Y13352D01*
X359275Y14998D01*
X361603Y17325D01*
X362917Y19602D01*
X363998Y19856D01*
X364602D01*
X365683Y19602D01*
X366997Y17325D01*
X369325Y14998D01*
X372175Y13352D01*
X375354Y12500D01*
X378646D01*
X381825Y13352D01*
X384675Y14998D01*
X387002Y17325D01*
X388317Y19602D01*
X389398Y19856D01*
X390002D01*
X391083Y19602D01*
X392397Y17325D01*
X394725Y14998D01*
X397575Y13352D01*
X400754Y12500D01*
X404046D01*
X407225Y13352D01*
X410075Y14998D01*
X412402Y17325D01*
X413717Y19602D01*
X414798Y19856D01*
X415402D01*
X416483Y19602D01*
X417798Y17325D01*
X420125Y14998D01*
X422975Y13352D01*
X426154Y12500D01*
X429446D01*
X432625Y13352D01*
X435475Y14998D01*
X437803Y17325D01*
X439089Y19553D01*
X440068Y19798D01*
X440915Y19794D01*
X441868Y19547D01*
X443166Y17300D01*
X445500Y14965D01*
X448360Y13315D01*
X451549Y12460D01*
X451930D01*
Y25000D01*
Y37540D01*
D02*
G37*
G36*
X454851D02*
X454470D01*
Y25000D01*
Y12460D01*
X454851D01*
X458040Y13315D01*
X460900Y14965D01*
X463234Y17300D01*
X464532Y19547D01*
X465485Y19794D01*
X466332Y19798D01*
X467311Y19553D01*
X468597Y17325D01*
X470925Y14998D01*
X473775Y13352D01*
X476954Y12500D01*
X480246D01*
X483425Y13352D01*
X486275Y14998D01*
X488602Y17325D01*
X489917Y19602D01*
X490998Y19856D01*
X491602D01*
X492683Y19602D01*
X493997Y17325D01*
X496325Y14998D01*
X499175Y13352D01*
X502354Y12500D01*
X505646D01*
X508825Y13352D01*
X511675Y14998D01*
X514002Y17325D01*
X515317Y19602D01*
X516398Y19856D01*
X517002D01*
X518083Y19602D01*
X519398Y17325D01*
X521725Y14998D01*
X524575Y13352D01*
X527754Y12500D01*
X531046D01*
X534225Y13352D01*
X537075Y14998D01*
X539403Y17325D01*
X541048Y20175D01*
X541900Y23354D01*
Y26646D01*
X541048Y29825D01*
X539403Y32675D01*
X537075Y35003D01*
X534225Y36648D01*
X531046Y37500D01*
X527754D01*
X524575Y36648D01*
X521725Y35003D01*
X519398Y32675D01*
X518083Y30398D01*
X517002Y30143D01*
X516398D01*
X515317Y30398D01*
X514002Y32675D01*
X511675Y35003D01*
X508825Y36648D01*
X505646Y37500D01*
X502354D01*
X499175Y36648D01*
X496325Y35003D01*
X493997Y32675D01*
X492683Y30398D01*
X491602Y30143D01*
X490998D01*
X489917Y30398D01*
X488602Y32675D01*
X486275Y35003D01*
X483425Y36648D01*
X480246Y37500D01*
X476954D01*
X473775Y36648D01*
X470925Y35003D01*
X468597Y32675D01*
X467311Y30447D01*
X466332Y30202D01*
X465485Y30206D01*
X464532Y30453D01*
X463234Y32700D01*
X460900Y35034D01*
X458040Y36685D01*
X454851Y37540D01*
D02*
G37*
%LPD*%
D19*
X432500Y235000D02*
D03*
X413500D02*
D03*
D25*
X453000Y236500D02*
D03*
Y217500D02*
D03*
D46*
X334086Y149929D02*
X337015Y147000D01*
X334086Y149929D02*
Y159672D01*
X337015Y147000D02*
X357000D01*
X412000Y92000D02*
X471571D01*
X474500Y94929D02*
Y148500D01*
X471571Y92000D02*
X474500Y94929D01*
Y148500D02*
X539500D01*
X575700Y114600D02*
X578000D01*
X541800Y148500D02*
X575700Y114600D01*
X539500Y148500D02*
X541800D01*
X414500Y225500D02*
Y234000D01*
X413500Y235000D02*
X414500Y234000D01*
X422500Y217500D02*
X453000D01*
X414500Y225500D02*
X422500Y217500D01*
X412000Y92000D02*
X453200Y50800D01*
X333909Y159495D02*
X334086Y159672D01*
X333414Y159000D02*
X333909Y159495D01*
X475950Y217500D02*
X524450Y169000D01*
X549000D01*
X578000Y140000D01*
X289353Y159000D02*
X333414D01*
X287353Y157000D02*
X289353Y159000D01*
X286000Y157000D02*
X287353D01*
X453000Y217500D02*
X475950D01*
X453200Y25000D02*
Y50800D01*
X427147Y25653D02*
X427800Y25000D01*
X224600Y275000D02*
X241600Y258000D01*
X410000D01*
X413500Y235000D02*
Y254500D01*
X410000Y258000D02*
X413500Y254500D01*
D47*
X371100Y294500D02*
X537477D01*
X592000Y239977D01*
X351600Y275000D02*
X371100Y294500D01*
X402400Y275000D02*
X416400Y289000D01*
X535199D02*
X543400Y280799D01*
X416400Y289000D02*
X535199D01*
X543400Y203757D02*
Y280799D01*
X539500Y193500D02*
X542753Y196753D01*
Y203110D01*
X543400Y203757D01*
X391000Y93000D02*
Y93000D01*
X434000Y136000D01*
X578000Y190800D02*
X592000Y204800D01*
Y239977D01*
X430500Y237000D02*
Y272300D01*
X427800Y275000D02*
X430500Y272300D01*
Y237000D02*
X432500Y235000D01*
X453000Y236500D02*
X453200Y236700D01*
Y275000D01*
X427800Y271094D02*
Y275000D01*
D48*
X199200D02*
D03*
Y25000D02*
D03*
X474500Y148500D02*
D03*
D49*
X224600Y275000D02*
D03*
X250000D02*
D03*
X275400D02*
D03*
X300800D02*
D03*
X326200D02*
D03*
X351600D02*
D03*
X377000D02*
D03*
X402400D02*
D03*
X427800D02*
D03*
X453200D02*
D03*
X478600D02*
D03*
X504000D02*
D03*
X529400D02*
D03*
X224600Y25000D02*
D03*
X250000D02*
D03*
X275400D02*
D03*
X300800D02*
D03*
X326200D02*
D03*
X351600D02*
D03*
X377000D02*
D03*
X402400D02*
D03*
X427800D02*
D03*
X453200D02*
D03*
X478600D02*
D03*
X504000D02*
D03*
X529400D02*
D03*
X539500Y148500D02*
D03*
X474500Y193500D02*
D03*
X539500D02*
D03*
X578000Y190800D02*
D03*
Y216200D02*
D03*
Y140000D02*
D03*
Y165400D02*
D03*
Y114600D02*
D03*
D50*
X17000Y61000D02*
D03*
Y131000D02*
D03*
D51*
X44000Y71000D02*
D03*
Y121000D02*
D03*
D52*
X578000Y89200D02*
D03*
D53*
X334086Y159672D02*
D03*
X391000Y93000D02*
D03*
X286000Y157000D02*
D03*
X357000Y147000D02*
D03*
X434000Y136000D02*
D03*
X412000Y92000D02*
D03*
M02*
