G04*
G04 #@! TF.GenerationSoftware,Altium Limited,Altium Designer,24.5.2 (23)*
G04*
G04 Layer_Color=8421504*
%FSLAX44Y44*%
%MOMM*%
G71*
G04*
G04 #@! TF.SameCoordinates,52CA54B2-E9F7-45E4-B012-8A7E883E60BD*
G04*
G04*
G04 #@! TF.FilePolarity,Positive*
G04*
G01*
G75*
G04:AMPARAMS|DCode=13|XSize=0.55mm|YSize=1.5mm|CornerRadius=0mm|HoleSize=0mm|Usage=FLASHONLY|Rotation=45.000|XOffset=0mm|YOffset=0mm|HoleType=Round|Shape=Rectangle|*
%AMROTATEDRECTD13*
4,1,4,0.3359,-0.7248,-0.7248,0.3359,-0.3359,0.7248,0.7248,-0.3359,0.3359,-0.7248,0.0*
%
%ADD13ROTATEDRECTD13*%

G04:AMPARAMS|DCode=14|XSize=0.55mm|YSize=1.5mm|CornerRadius=0mm|HoleSize=0mm|Usage=FLASHONLY|Rotation=315.000|XOffset=0mm|YOffset=0mm|HoleType=Round|Shape=Rectangle|*
%AMROTATEDRECTD14*
4,1,4,-0.7248,-0.3359,0.3359,0.7248,0.7248,0.3359,-0.3359,-0.7248,-0.7248,-0.3359,0.0*
%
%ADD14ROTATEDRECTD14*%

%ADD15R,1.3000X0.9000*%
%ADD16R,0.9000X1.3000*%
G04:AMPARAMS|DCode=17|XSize=0.7mm|YSize=1.3mm|CornerRadius=0mm|HoleSize=0mm|Usage=FLASHONLY|Rotation=135.000|XOffset=0mm|YOffset=0mm|HoleType=Round|Shape=Rectangle|*
%AMROTATEDRECTD17*
4,1,4,0.7071,0.2121,-0.2121,-0.7071,-0.7071,-0.2121,0.2121,0.7071,0.7071,0.2121,0.0*
%
%ADD17ROTATEDRECTD17*%

%ADD18R,0.8000X0.8000*%
%ADD19R,0.7000X1.3000*%
%ADD20R,0.9500X2.1500*%
%ADD21R,3.2500X2.1500*%
%ADD22R,1.5000X1.5000*%
%ADD23R,1.3500X0.4000*%
%ADD24R,1.4000X2.0300*%
%ADD25R,1.3000X0.7000*%
%ADD26R,2.0000X5.5000*%
D13*
X342100Y195497D02*
D03*
X336444Y189841D02*
D03*
X330787Y184184D02*
D03*
X325130Y178527D02*
D03*
X319473Y172870D02*
D03*
X313816Y167213D02*
D03*
X308159Y161556D02*
D03*
X302502Y155899D02*
D03*
X361899Y96503D02*
D03*
X367556Y102159D02*
D03*
X373213Y107816D02*
D03*
X378870Y113473D02*
D03*
X384527Y119130D02*
D03*
X390184Y124787D02*
D03*
X395841Y130444D02*
D03*
X401497Y136101D02*
D03*
D14*
X302502D02*
D03*
X308159Y130444D02*
D03*
X313816Y124787D02*
D03*
X319473Y119130D02*
D03*
X325130Y113473D02*
D03*
X330787Y107816D02*
D03*
X336444Y102159D02*
D03*
X342100Y96503D02*
D03*
X401497Y155899D02*
D03*
X395841Y161556D02*
D03*
X390184Y167213D02*
D03*
X384527Y172870D02*
D03*
X378870Y178527D02*
D03*
X373213Y184184D02*
D03*
X367556Y189841D02*
D03*
X361899Y195497D02*
D03*
D15*
X267000Y163500D02*
D03*
Y182500D02*
D03*
Y145500D02*
D03*
Y126500D02*
D03*
X145000Y90500D02*
D03*
X145000Y109500D02*
D03*
X117000Y90500D02*
D03*
X117000Y109500D02*
D03*
X90000Y90500D02*
D03*
X90000Y109500D02*
D03*
D16*
X538500Y63000D02*
D03*
X519500D02*
D03*
X538500Y87000D02*
D03*
X519500D02*
D03*
Y111000D02*
D03*
X538500D02*
D03*
X542500Y242000D02*
D03*
X523500D02*
D03*
X170500Y143000D02*
D03*
X151500Y143000D02*
D03*
D17*
X371717Y57283D02*
D03*
X358283Y70718D02*
D03*
D18*
X409000Y50000D02*
D03*
X394000Y50000D02*
D03*
X170500Y204000D02*
D03*
X155500D02*
D03*
D19*
X522500Y218000D02*
D03*
X541500D02*
D03*
D20*
X69000Y222000D02*
D03*
X46000Y222000D02*
D03*
X23000Y222000D02*
D03*
D21*
X46000Y280000D02*
D03*
D22*
X17000Y86000D02*
D03*
Y106000D02*
D03*
D23*
X44000Y83000D02*
D03*
Y89500D02*
D03*
Y96000D02*
D03*
Y102500D02*
D03*
Y109000D02*
D03*
D24*
X89600Y144000D02*
D03*
X126400D02*
D03*
D25*
X170000Y165500D02*
D03*
Y184500D02*
D03*
D26*
X228000Y187500D02*
D03*
Y92500D02*
D03*
M02*
