M48
;Layer_Color=9474304
;FILE_FORMAT=4:4
METRIC,LZ
;TYPE=PLATED
T02F00S00C0.6000
T04F00S00C1.0000
%
T02
X00286Y00157
X00334086Y00159672
X00357Y00147
X00434Y00136
X00412Y00092
X00391Y00093
T04
X0025Y00025
X002754
X003008
X003262
X003516
X00377
X004024
X004278
X004532
X004786
X00504
X005294
X00578Y000892
Y001146
Y0014
Y001654
Y001908
Y002162
X005395Y001935
Y001485
X004745
Y001935
X002246Y00025
X001992
Y00275
X002246
X0025
X002754
X003008
X003262
X003516
X00377
X004024
X004278
X004532
X004786
X00504
X005294
M30
